<?xml version="1.0" encoding="UTF-8" standalone="no"?>
<!DOCTYPE svg PUBLIC "-//W3C//DTD SVG 1.1//EN" "http://www.w3.org/Graphics/SVG/1.1/DTD/svg11.dtd">
<svg xmlns="http://www.w3.org/2000/svg" version="1.1" viewBox="0.00 0.00 843.00 843.00">
<path fill="#0087ff" d="
  M 261.55 275.19
  C 259.21 276.15 256.83 275.68 254.30 276.47
  C 252.38 277.07 250.35 276.70 248.33 277.30
  C 245.96 278.02 243.59 277.74 241.14 278.48
  C 239.76 278.90 238.13 278.88 236.64 279.12
  Q 212.79 282.84 187.25 286.76
  Q 148.59 292.70 109.95 298.71
  C 108.31 298.96 106.77 298.78 105.26 299.56
  A 2.02 1.96 31.3 0 1 104.25 299.79
  Q 101.88 299.67 100.05 300.12
  C 97.06 300.85 94.79 300.91 92.11 301.22
  A 0.75 0.75 0.0 0 1 91.41 300.05
  Q 123.50 253.21 153.94 208.95
  C 154.62 207.98 155.02 207.21 156.23 206.93
  C 159.78 206.11 162.76 206.22 165.95 205.69
  C 169.19 205.15 172.39 205.34 175.48 204.64
  C 178.38 203.99 181.19 204.26 184.08 203.69
  C 187.07 203.09 190.20 203.43 193.05 202.63
  C 195.66 201.91 198.37 202.30 200.99 201.77
  Q 204.02 201.16 207.03 201.11
  C 209.67 201.07 211.95 200.15 214.55 200.18
  C 217.81 200.23 220.84 199.16 224.05 199.16
  Q 226.55 199.16 228.89 198.59
  C 231.20 198.03 233.50 198.35 235.77 197.90
  Q 238.22 197.41 240.91 197.23
  Q 243.51 197.06 246.06 196.67
  Q 249.63 196.12 253.24 195.89
  C 255.89 195.72 258.48 195.03 261.21 195.04
  C 263.30 195.04 265.13 194.09 267.28 194.18
  Q 270.37 194.31 273.08 193.62
  C 275.71 192.95 278.35 193.40 280.91 192.79
  C 283.22 192.25 285.47 192.13 287.82 192.08
  Q 289.28 192.04 290.62 191.68
  C 293.57 190.90 296.49 191.34 299.48 190.66
  C 302.82 189.90 306.07 190.27 309.50 189.51
  C 312.01 188.95 314.58 189.26 317.15 188.70
  Q 319.25 188.24 321.39 188.17
  Q 324.17 188.08 327.03 187.49
  Q 328.91 187.10 331.01 187.09
  C 334.26 187.09 337.28 186.13 340.54 186.10
  Q 342.25 186.09 343.91 185.66
  C 346.72 184.93 349.76 185.23 352.62 184.66
  Q 355.23 184.14 358.00 184.11
  A 1.78 1.77 73.5 0 1 359.52 184.94
  L 385.62 226.71
  Q 386.23 227.69 385.57 228.63
  L 332.73 304.70
  Q 332.41 305.16 332.89 304.86
  L 739.97 51.79
  A 0.75 0.75 0.0 0 1 741.11 52.51
  Q 740.74 55.88 739.97 59.77
  Q 738.56 66.85 737.20 73.99
  Q 698.17 279.98 655.58 503.27
  A 2.42 2.41 -10.2 0 1 654.44 504.90
  Q 514.83 587.94 375.56 670.83
  Q 367.31 675.74 359.36 680.18
  Q 358.89 680.44 358.53 680.05
  L 133.10 434.22
  A 1.21 1.20 43.5 0 1 133.05 432.63
  L 261.83 275.57
  Q 262.44 274.82 261.55 275.19
  Z
  M 583.81 326.76
  C 583.69 327.20 583.51 327.35 583.51 327.85
  Q 583.51 339.51 583.52 351.15
  Q 583.52 351.67 583.77 352.13
  Q 583.92 352.41 583.93 352.75
  Q 584.04 357.86 584.83 363.68
  Q 584.85 363.81 584.77 363.91
  Q 584.74 363.95 584.71 363.99
  Q 584.62 364.15 584.64 364.34
  Q 585.14 369.40 585.84 373.97
  Q 586.84 380.43 588.00 387.28
  C 588.31 389.11 589.04 390.53 589.41 392.25
  Q 590.88 399.18 593.97 406.43
  Q 596.68 412.76 600.53 417.31
  C 603.45 420.75 606.57 422.29 610.96 421.28
  C 613.03 420.80 616.73 417.58 618.03 415.87
  Q 621.50 411.31 623.00 407.55
  Q 626.49 398.79 629.21 387.55
  C 629.57 386.04 629.28 384.55 629.88 383.19
  Q 630.48 381.83 630.49 380.35
  Q 630.51 378.30 631.25 376.19
  Q 631.85 374.47 632.02 372.03
  Q 632.43 365.70 633.15 359.40
  Q 633.46 356.69 633.47 354.14
  Q 633.48 351.50 633.49 348.82
  Q 633.49 344.99 633.91 340.99
  Q 634.27 337.49 633.87 333.91
  Q 633.47 330.43 633.51 327.35
  Q 633.55 322.47 633.36 317.79
  C 633.33 316.83 632.94 316.01 632.98 315.02
  Q 633.17 309.78 632.19 304.88
  Q 632.01 303.97 631.90 303.02
  Q 629.95 285.33 624.19 268.84
  C 622.37 263.62 616.55 253.84 610.17 253.00
  Q 605.25 252.35 602.17 255.51
  Q 595.88 261.95 592.57 271.45
  Q 589.37 280.65 587.56 290.32
  Q 586.23 297.42 585.14 304.69
  C 584.88 306.45 585.06 308.16 584.78 309.82
  Q 583.85 315.25 583.99 320.95
  C 584.04 322.76 583.02 324.29 583.76 326.06
  Q 583.91 326.40 583.81 326.76
  Z
  M 492.01 404.80
  Q 491.87 404.85 491.75 404.93
  Q 491.39 405.17 491.55 405.58
  Q 492.72 408.72 492.50 412.52
  C 492.37 414.86 493.38 416.90 493.45 419.22
  C 493.49 421.06 494.44 422.40 494.49 424.23
  C 494.56 426.37 495.48 428.22 495.54 430.36
  A 1.56 1.56 0.0 0 0 495.87 431.29
  Q 496.74 432.40 496.54 433.86
  A 1.57 1.54 40.3 0 0 496.60 434.51
  Q 497.47 437.21 498.27 440.16
  Q 499.46 444.55 501.69 449.15
  Q 503.01 451.87 504.57 454.09
  C 507.71 458.59 510.63 463.31 516.99 462.50
  C 519.13 462.23 520.45 460.92 522.10 459.71
  Q 523.82 458.45 524.94 456.89
  C 526.66 454.51 528.41 452.31 529.57 449.61
  Q 533.43 440.59 536.10 429.02
  Q 536.28 428.24 536.42 427.51
  Q 538.54 416.20 539.92 404.27
  C 540.08 402.90 539.82 401.45 540.09 400.17
  Q 540.42 398.63 540.44 397.15
  Q 540.55 389.78 540.56 382.26
  C 540.56 380.76 541.06 379.40 540.98 377.94
  Q 540.52 370.05 540.45 361.79
  Q 540.42 358.26 539.93 354.64
  Q 539.49 351.38 539.40 347.49
  C 539.39 346.83 538.93 346.20 538.98 345.45
  Q 539.19 342.46 538.24 339.70
  Q 538.00 339.01 537.98 338.28
  Q 537.95 337.16 537.78 336.39
  Q 536.98 332.73 536.25 328.73
  Q 535.52 324.76 534.40 320.82
  Q 533.14 316.35 531.60 312.16
  Q 529.77 307.16 526.61 301.68
  C 525.41 299.58 523.43 297.39 521.47 296.04
  Q 514.41 291.17 508.76 297.11
  Q 502.75 303.43 499.79 312.09
  Q 495.37 325.03 493.11 338.57
  C 492.91 339.80 493.16 341.05 492.85 342.23
  Q 492.19 344.77 492.05 347.35
  Q 491.92 349.75 491.66 352.08
  Q 491.13 357.03 490.98 361.88
  C 490.93 363.78 490.01 365.55 490.84 367.35
  Q 490.91 367.49 490.87 367.63
  Q 490.81 367.83 490.69 368.00
  A 1.04 1.03 61.9 0 0 490.54 368.50
  Q 490.44 379.35 490.53 389.31
  Q 490.56 392.80 491.14 396.32
  Q 491.70 399.74 491.48 403.26
  Q 491.45 403.78 491.86 404.10
  Q 492.03 404.23 492.16 404.42
  A 0.25 0.25 0.0 0 1 492.01 404.80
  Z"
/>
<path fill="#0087ff" d="
  M 242.01 629.73
  Q 242.35 629.48 242.75 629.43
  Q 251.22 628.30 258.80 629.27
  Q 261.21 629.58 265.34 630.72
  Q 268.64 631.64 271.39 633.02
  Q 292.64 643.65 297.35 666.38
  Q 298.43 671.58 297.85 680.69
  Q 297.74 682.57 297.27 684.26
  C 296.82 685.87 296.79 687.39 296.22 688.98
  Q 288.23 711.37 266.43 719.07
  C 259.29 721.59 251.55 721.65 243.87 720.78
  C 242.59 720.63 241.51 720.12 240.24 719.84
  Q 233.18 718.28 226.85 714.07
  Q 211.33 703.75 206.81 685.87
  Q 206.15 683.27 205.95 680.49
  C 205.76 678.01 205.11 675.68 205.47 673.17
  Q 206.03 669.32 206.52 665.06
  Q 206.78 662.86 209.14 657.10
  Q 210.80 653.04 212.94 649.89
  Q 222.85 635.27 239.09 630.42
  Q 240.19 630.09 241.35 629.98
  Q 241.71 629.94 242.01 629.73
  Z"
/>
<path fill="#0087ff" d="
  M 373.90 717.92
  Q 375.66 711.22 378.00 707.02
  Q 386.90 691.11 405.00 684.67
  C 406.36 684.18 408.06 684.32 409.25 683.64
  C 410.71 682.81 414.37 683.09 416.16 682.89
  Q 418.59 682.61 421.43 682.83
  Q 430.07 683.49 435.93 685.94
  Q 458.68 695.45 464.50 720.73
  Q 465.35 724.43 464.79 735.27
  Q 464.71 736.79 464.28 738.23
  C 463.85 739.63 463.89 740.95 463.42 742.32
  Q 460.28 751.53 455.78 757.10
  Q 438.48 778.54 410.61 774.73
  Q 409.67 774.61 408.87 774.22
  C 408.10 773.86 407.34 773.93 406.53 773.72
  Q 398.99 771.77 392.51 767.14
  Q 377.98 756.75 373.81 739.87
  Q 373.15 737.21 372.97 734.60
  C 372.80 732.19 372.04 729.68 372.45 727.35
  Q 373.14 723.54 373.26 719.65
  Q 373.27 719.15 373.55 718.72
  Q 373.78 718.35 373.90 717.92
  Z"
/>
</svg>
