<?xml version="1.0" encoding="UTF-8" standalone="no"?>
<!DOCTYPE svg PUBLIC "-//W3C//DTD SVG 1.1//EN" "http://www.w3.org/Graphics/SVG/1.1/DTD/svg11.dtd">
<svg xmlns="http://www.w3.org/2000/svg" version="1.1" viewBox="0 0 2591 809">
<g stroke-width="2.00" fill="none" stroke-linecap="butt">
<path stroke="#004480" vector-effect="non-scaling-stroke" d="
  M 330.22 291.96
  L 380.98 218.83
  A 0.61 0.60 -44.6 0 0 380.99 218.17
  L 355.45 177.25
  Q 355.13 176.75 354.54 176.74
  Q 353.28 176.71 351.19 176.95
  Q 257.18 187.50 163.19 198.17
  Q 161.25 198.39 159.80 198.87
  Q 159.27 199.05 158.96 199.51
  L 98.28 287.92
  A 0.85 0.85 0.0 0 0 99.11 289.24
  L 261.46 264.27
  A 0.22 0.22 0.0 0 1 261.66 264.62
  L 138.31 415.09
  A 1.30 1.29 -46.4 0 0 138.35 416.79
  Q 245.53 533.71 352.77 650.63
  C 354.39 652.40 354.56 653.50 357.19 651.94
  Q 497.75 568.39 638.25 484.76
  Q 639.50 484.01 639.66 483.18
  Q 678.97 276.49 718.37 69.82
  Q 720.26 59.92 721.77 50.23
  A 0.63 0.63 0.0 0 0 720.82 49.59
  L 330.50 292.25
  Q 329.65 292.77 330.22 291.96"
/>
<path stroke="#808080" vector-effect="non-scaling-stroke" d="
  M 862.30 551.78
  Q 1005.97 372.60 1149.90 193.64
  Q 1151.66 191.44 1152.57 189.79
  Q 1153.41 188.25 1151.66 188.25
  L 1018.81 188.25
  Q 1018.19 188.25 1017.80 188.74
  L 729.65 551.99
  Q 728.58 553.33 729.90 554.42
  L 825.83 634.66
  Q 826.14 634.93 826.56 634.93
  L 1223.54 635.17
  A 1.19 1.19 0.0 0 0 1224.58 633.40
  L 1179.52 553.01
  Q 1179.27 552.57 1178.77 552.57
  L 862.55 552.32
  Q 861.87 552.31 862.30 551.78"
/>
<path stroke="#808080" vector-effect="non-scaling-stroke" d="
  M 1457.44 314.31
  L 1576.84 634.24
  Q 1577.16 635.08 1578.06 635.08
  L 1676.55 634.60
  A 0.94 0.94 0.0 0 0 1677.42 633.31
  L 1498.99 188.76
  Q 1498.78 188.25 1498.23 188.25
  L 1413.76 188.25
  Q 1412.66 188.25 1412.28 189.29
  L 1297.99 508.94
  A 0.35 0.35 0.0 0 1 1297.34 508.97
  L 1167.48 216.32
  A 0.84 0.83 58.8 0 0 1166.20 216.00
  Q 1165.02 216.93 1163.76 218.51
  Q 1128.12 263.11 1092.47 307.71
  Q 1091.38 309.08 1090.71 310.00
  Q 1090.41 310.42 1090.65 310.88
  L 1262.38 634.25
  A 1.42 1.42 0.0 0 0 1263.63 635.00
  L 1360.22 635.00
  A 0.92 0.92 0.0 0 0 1361.10 634.35
  L 1457.20 314.32
  Q 1457.31 313.96 1457.44 314.31"
/>
<path stroke="#808080" vector-effect="non-scaling-stroke" d="
  M 1916.15 272.58
  L 1986.50 390.00
  A 0.29 0.29 0.0 0 1 1986.25 390.43
  L 1892.94 390.81
  Q 1892.31 390.81 1892.01 391.36
  L 1848.37 471.12
  Q 1847.51 472.68 1849.29 472.68
  L 2137.56 473.17
  A 0.87 0.86 -13.7 0 0 2138.33 471.91
  L 1989.99 188.76
  A 0.96 0.84 74.2 0 0 1989.21 188.25
  L 1845.82 188.25
  Q 1844.29 188.25 1843.57 189.61
  L 1667.09 524.46
  Q 1666.82 524.97 1667.05 525.51
  Q 1689.04 578.36 1710.98 631.22
  Q 1711.77 633.14 1712.94 634.96
  Q 1713.27 635.49 1713.66 635.00
  Q 1714.71 633.70 1715.79 631.77
  Q 1815.83 452.19 1915.86 272.58
  A 0.17 0.17 0.0 0 1 1916.15 272.58"
/>
<path stroke="#808080" vector-effect="non-scaling-stroke" d="
  M 2364.44 271.50
  Q 2328.77 315.14 2292.68 358.48
  C 2290.31 361.33 2292.10 362.74 2293.49 365.34
  Q 2316.03 407.66 2339.07 450.57
  A 0.93 0.92 -39.3 0 0 2340.60 450.72
  L 2487.96 270.45
  A 0.71 0.70 -45.7 0 0 2487.95 269.54
  L 2416.54 188.98
  Q 2416.20 188.59 2415.68 188.58
  Q 2400.56 188.22 2385.44 188.22
  Q 2266.29 188.18 2147.59 188.32
  A 1.44 1.41 -68.9 0 0 2146.52 188.81
  L 2075.36 269.06
  Q 2074.89 269.60 2075.22 270.24
  L 2268.56 634.53
  A 0.57 0.55 75.5 0 0 2269.05 634.83
  L 2389.32 635.32
  A 1.26 1.25 76.1 0 0 2390.43 633.47
  L 2197.91 271.24
  A 0.19 0.19 0.0 0 1 2198.08 270.96
  L 2364.24 271.07
  Q 2364.80 271.07 2364.44 271.50"
/>
<path stroke="#004480" vector-effect="non-scaling-stroke" d="
  M 296.69 647.83
  A 44.44 44.44 0.0 0 0 252.25 603.39
  A 44.44 44.44 0.0 0 0 207.81 647.83
  A 44.44 44.44 0.0 0 0 252.25 692.27
  A 44.44 44.44 0.0 0 0 296.69 647.83"
/>
<path stroke="#004480" vector-effect="non-scaling-stroke" d="
  M 456.96 699.66
  A 44.45 44.45 0.0 0 0 412.51 655.21
  A 44.45 44.45 0.0 0 0 368.06 699.66
  A 44.45 44.45 0.0 0 0 412.51 744.11
  A 44.45 44.45 0.0 0 0 456.96 699.66"
/>
<path stroke="#004480" vector-effect="non-scaling-stroke" d="
  M 594.5384 404.6699
  A 81.15 24.29 90.1 0 0 618.9700 323.5624
  A 81.15 24.29 90.1 0 0 594.8216 242.3701
  A 81.15 24.29 90.1 0 0 570.3900 323.4776
  A 81.15 24.29 90.1 0 0 594.5384 404.6699"
/>
<path stroke="#004480" vector-effect="non-scaling-stroke" d="
  M 505.4600 444.0100
  A 81.03 24.25 90.0 0 0 529.7100 362.9800
  A 81.03 24.25 90.0 0 0 505.4600 281.9500
  A 81.03 24.25 90.0 0 0 481.2100 362.9800
  A 81.03 24.25 90.0 0 0 505.4600 444.0100"
/>
</g>
<path fill="#000000" d="
  M 0.00 0.00
  L 2591.00 0.00
  L 2591.00 809.00
  L 0.00 809.00
  L 0.00 0.00
  Z
  M 330.22 291.96
  L 380.98 218.83
  A 0.61 0.60 -44.6 0 0 380.99 218.17
  L 355.45 177.25
  Q 355.13 176.75 354.54 176.74
  Q 353.28 176.71 351.19 176.95
  Q 257.18 187.50 163.19 198.17
  Q 161.25 198.39 159.80 198.87
  Q 159.27 199.05 158.96 199.51
  L 98.28 287.92
  A 0.85 0.85 0.0 0 0 99.11 289.24
  L 261.46 264.27
  A 0.22 0.22 0.0 0 1 261.66 264.62
  L 138.31 415.09
  A 1.30 1.29 -46.4 0 0 138.35 416.79
  Q 245.53 533.71 352.77 650.63
  C 354.39 652.40 354.56 653.50 357.19 651.94
  Q 497.75 568.39 638.25 484.76
  Q 639.50 484.01 639.66 483.18
  Q 678.97 276.49 718.37 69.82
  Q 720.26 59.92 721.77 50.23
  A 0.63 0.63 0.0 0 0 720.82 49.59
  L 330.50 292.25
  Q 329.65 292.77 330.22 291.96
  Z
  M 862.30 551.78
  Q 1005.97 372.60 1149.90 193.64
  Q 1151.66 191.44 1152.57 189.79
  Q 1153.41 188.25 1151.66 188.25
  L 1018.81 188.25
  Q 1018.19 188.25 1017.80 188.74
  L 729.65 551.99
  Q 728.58 553.33 729.90 554.42
  L 825.83 634.66
  Q 826.14 634.93 826.56 634.93
  L 1223.54 635.17
  A 1.19 1.19 0.0 0 0 1224.58 633.40
  L 1179.52 553.01
  Q 1179.27 552.57 1178.77 552.57
  L 862.55 552.32
  Q 861.87 552.31 862.30 551.78
  Z
  M 1457.44 314.31
  L 1576.84 634.24
  Q 1577.16 635.08 1578.06 635.08
  L 1676.55 634.60
  A 0.94 0.94 0.0 0 0 1677.42 633.31
  L 1498.99 188.76
  Q 1498.78 188.25 1498.23 188.25
  L 1413.76 188.25
  Q 1412.66 188.25 1412.28 189.29
  L 1297.99 508.94
  A 0.35 0.35 0.0 0 1 1297.34 508.97
  L 1167.48 216.32
  A 0.84 0.83 58.8 0 0 1166.20 216.00
  Q 1165.02 216.93 1163.76 218.51
  Q 1128.12 263.11 1092.47 307.71
  Q 1091.38 309.08 1090.71 310.00
  Q 1090.41 310.42 1090.65 310.88
  L 1262.38 634.25
  A 1.42 1.42 0.0 0 0 1263.63 635.00
  L 1360.22 635.00
  A 0.92 0.92 0.0 0 0 1361.10 634.35
  L 1457.20 314.32
  Q 1457.31 313.96 1457.44 314.31
  Z
  M 1916.15 272.58
  L 1986.50 390.00
  A 0.29 0.29 0.0 0 1 1986.25 390.43
  L 1892.94 390.81
  Q 1892.31 390.81 1892.01 391.36
  L 1848.37 471.12
  Q 1847.51 472.68 1849.29 472.68
  L 2137.56 473.17
  A 0.87 0.86 -13.7 0 0 2138.33 471.91
  L 1989.99 188.76
  A 0.96 0.84 74.2 0 0 1989.21 188.25
  L 1845.82 188.25
  Q 1844.29 188.25 1843.57 189.61
  L 1667.09 524.46
  Q 1666.82 524.97 1667.05 525.51
  Q 1689.04 578.36 1710.98 631.22
  Q 1711.77 633.14 1712.94 634.96
  Q 1713.27 635.49 1713.66 635.00
  Q 1714.71 633.70 1715.79 631.77
  Q 1815.83 452.19 1915.86 272.58
  A 0.17 0.17 0.0 0 1 1916.15 272.58
  Z
  M 2364.44 271.50
  Q 2328.77 315.14 2292.68 358.48
  C 2290.31 361.33 2292.10 362.74 2293.49 365.34
  Q 2316.03 407.66 2339.07 450.57
  A 0.93 0.92 -39.3 0 0 2340.60 450.72
  L 2487.96 270.45
  A 0.71 0.70 -45.7 0 0 2487.95 269.54
  L 2416.54 188.98
  Q 2416.20 188.59 2415.68 188.58
  Q 2400.56 188.22 2385.44 188.22
  Q 2266.29 188.18 2147.59 188.32
  A 1.44 1.41 -68.9 0 0 2146.52 188.81
  L 2075.36 269.06
  Q 2074.89 269.60 2075.22 270.24
  L 2268.56 634.53
  A 0.57 0.55 75.5 0 0 2269.05 634.83
  L 2389.32 635.32
  A 1.26 1.25 76.1 0 0 2390.43 633.47
  L 2197.91 271.24
  A 0.19 0.19 0.0 0 1 2198.08 270.96
  L 2364.24 271.07
  Q 2364.80 271.07 2364.44 271.50
  Z
  M 296.69 647.83
  A 44.44 44.44 0.0 0 0 252.25 603.39
  A 44.44 44.44 0.0 0 0 207.81 647.83
  A 44.44 44.44 0.0 0 0 252.25 692.27
  A 44.44 44.44 0.0 0 0 296.69 647.83
  Z
  M 456.96 699.66
  A 44.45 44.45 0.0 0 0 412.51 655.21
  A 44.45 44.45 0.0 0 0 368.06 699.66
  A 44.45 44.45 0.0 0 0 412.51 744.11
  A 44.45 44.45 0.0 0 0 456.96 699.66
  Z"
/>
<path fill="#0087ff" d="
  M 330.50 292.25
  L 720.82 49.59
  A 0.63 0.63 0.0 0 1 721.77 50.23
  Q 720.26 59.92 718.37 69.82
  Q 678.97 276.49 639.66 483.18
  Q 639.50 484.01 638.25 484.76
  Q 497.75 568.39 357.19 651.94
  C 354.56 653.50 354.39 652.40 352.77 650.63
  Q 245.53 533.71 138.35 416.79
  A 1.30 1.29 -46.4 0 1 138.31 415.09
  L 261.66 264.62
  A 0.22 0.22 0.0 0 0 261.46 264.27
  L 99.11 289.24
  A 0.85 0.85 0.0 0 1 98.28 287.92
  L 158.96 199.51
  Q 159.27 199.05 159.80 198.87
  Q 161.25 198.39 163.19 198.17
  Q 257.18 187.50 351.19 176.95
  Q 353.28 176.71 354.54 176.74
  Q 355.13 176.75 355.45 177.25
  L 380.99 218.17
  A 0.61 0.60 -44.6 0 1 380.98 218.83
  L 330.22 291.96
  Q 329.65 292.77 330.50 292.25
  Z
  M 594.5384 404.6699
  A 81.15 24.29 90.1 0 0 618.9700 323.5624
  A 81.15 24.29 90.1 0 0 594.8216 242.3701
  A 81.15 24.29 90.1 0 0 570.3900 323.4776
  A 81.15 24.29 90.1 0 0 594.5384 404.6699
  Z
  M 505.4600 444.0100
  A 81.03 24.25 90.0 0 0 529.7100 362.9800
  A 81.03 24.25 90.0 0 0 505.4600 281.9500
  A 81.03 24.25 90.0 0 0 481.2100 362.9800
  A 81.03 24.25 90.0 0 0 505.4600 444.0100
  Z"
/>
<path fill="#ffffff" d="
  M 862.55 552.32
  L 1178.77 552.57
  Q 1179.27 552.57 1179.52 553.01
  L 1224.58 633.40
  A 1.19 1.19 0.0 0 1 1223.54 635.17
  L 826.56 634.93
  Q 826.14 634.93 825.83 634.66
  L 729.90 554.42
  Q 728.58 553.33 729.65 551.99
  L 1017.80 188.74
  Q 1018.19 188.25 1018.81 188.25
  L 1151.66 188.25
  Q 1153.41 188.25 1152.57 189.79
  Q 1151.66 191.44 1149.90 193.64
  Q 1005.97 372.60 862.30 551.78
  Q 861.87 552.31 862.55 552.32
  Z"
/>
<path fill="#ffffff" d="
  M 1457.20 314.32
  L 1361.10 634.35
  A 0.92 0.92 0.0 0 1 1360.22 635.00
  L 1263.63 635.00
  A 1.42 1.42 0.0 0 1 1262.38 634.25
  L 1090.65 310.88
  Q 1090.41 310.42 1090.71 310.00
  Q 1091.38 309.08 1092.47 307.71
  Q 1128.12 263.11 1163.76 218.51
  Q 1165.02 216.93 1166.20 216.00
  A 0.84 0.83 58.8 0 1 1167.48 216.32
  L 1297.34 508.97
  A 0.35 0.35 0.0 0 0 1297.99 508.94
  L 1412.28 189.29
  Q 1412.66 188.25 1413.76 188.25
  L 1498.23 188.25
  Q 1498.78 188.25 1498.99 188.76
  L 1677.42 633.31
  A 0.94 0.94 0.0 0 1 1676.55 634.60
  L 1578.06 635.08
  Q 1577.16 635.08 1576.84 634.24
  L 1457.44 314.31
  Q 1457.31 313.96 1457.20 314.32
  Z"
/>
<path fill="#ffffff" d="
  M 1916.15 272.58
  A 0.17 0.17 0.0 0 0 1915.86 272.58
  Q 1815.83 452.19 1715.79 631.77
  Q 1714.71 633.70 1713.66 635.00
  Q 1713.27 635.49 1712.94 634.96
  Q 1711.77 633.14 1710.98 631.22
  Q 1689.04 578.36 1667.05 525.51
  Q 1666.82 524.97 1667.09 524.46
  L 1843.57 189.61
  Q 1844.29 188.25 1845.82 188.25
  L 1989.21 188.25
  A 0.96 0.84 74.2 0 1 1989.99 188.76
  L 2138.33 471.91
  A 0.87 0.86 -13.7 0 1 2137.56 473.17
  L 1849.29 472.68
  Q 1847.51 472.68 1848.37 471.12
  L 1892.01 391.36
  Q 1892.31 390.81 1892.94 390.81
  L 1986.25 390.43
  A 0.29 0.29 0.0 0 0 1986.50 390.00
  L 1916.15 272.58
  Z"
/>
<path fill="#ffffff" d="
  M 2364.24 271.07
  L 2198.08 270.96
  A 0.19 0.19 0.0 0 0 2197.91 271.24
  L 2390.43 633.47
  A 1.26 1.25 76.1 0 1 2389.32 635.32
  L 2269.05 634.83
  A 0.57 0.55 75.5 0 1 2268.56 634.53
  L 2075.22 270.24
  Q 2074.89 269.60 2075.36 269.06
  L 2146.52 188.81
  A 1.44 1.41 -68.9 0 1 2147.59 188.32
  Q 2266.29 188.18 2385.44 188.22
  Q 2400.56 188.22 2415.68 188.58
  Q 2416.20 188.59 2416.54 188.98
  L 2487.95 269.54
  A 0.71 0.70 -45.7 0 1 2487.96 270.45
  L 2340.60 450.72
  A 0.93 0.92 -39.3 0 1 2339.07 450.57
  Q 2316.03 407.66 2293.49 365.34
  C 2292.10 362.74 2290.31 361.33 2292.68 358.48
  Q 2328.77 315.14 2364.44 271.50
  Q 2364.80 271.07 2364.24 271.07
  Z"
/>
<ellipse fill="#000000" cx="0.00" cy="0.00" transform="translate(594.68,323.52) rotate(90.1)" rx="81.15" ry="24.29"/>
<ellipse fill="#000000" cx="0.00" cy="0.00" transform="translate(505.46,362.98) rotate(90.0)" rx="81.03" ry="24.25"/>
<circle fill="#0087ff" cx="252.25" cy="647.83" r="44.44"/>
<circle fill="#0087ff" cx="412.51" cy="699.66" r="44.45"/>
</svg>
