<?xml version="1.0" encoding="UTF-8" standalone="no"?>
<!DOCTYPE svg PUBLIC "-//W3C//DTD SVG 1.1//EN" "http://www.w3.org/Graphics/SVG/1.1/DTD/svg11.dtd">
<svg xmlns="http://www.w3.org/2000/svg" version="1.1" viewBox="0 0 2591 809">
<path fill="#0087ff" d="
  M 330.43 292.48
  Q 331.90 291.63 333.69 290.51
  Q 524.87 171.37 716.18 52.42
  Q 718.72 50.84 720.77 49.87
  Q 722.24 49.17 721.93 50.78
  L 639.72 482.94
  Q 639.52 483.99 638.60 484.54
  L 355.67 652.85
  Q 355.11 653.18 354.67 652.71
  L 138.01 416.42
  A 0.76 0.74 -46.9 0 1 137.99 415.44
  L 261.53 264.77
  A 0.33 0.33 0.0 0 0 261.23 264.24
  L 99.59 289.18
  Q 97.81 289.46 98.60 287.84
  Q 99.23 286.56 100.59 284.58
  Q 129.81 241.94 159.07 199.32
  Q 159.38 198.87 159.91 198.76
  Q 162.21 198.29 167.00 197.74
  Q 259.99 187.17 353.00 176.76
  Q 354.87 176.55 355.55 177.64
  Q 368.13 197.67 380.76 217.69
  A 1.37 1.37 0.0 0 1 380.73 219.21
  L 330.10 292.13
  A 0.25 0.24 2.1 0 0 330.43 292.48
  Z
  M 594.5584 404.6599
  A 81.14 24.32 90.1 0 0 619.0200 323.5624
  A 81.14 24.32 90.1 0 0 594.8416 242.3801
  A 81.14 24.32 90.1 0 0 570.3800 323.4776
  A 81.14 24.32 90.1 0 0 594.5584 404.6599
  Z
  M 505.4200 444.0800
  A 81.09 24.24 90.0 0 0 529.6600 362.9900
  A 81.09 24.24 90.0 0 0 505.4200 281.9000
  A 81.09 24.24 90.0 0 0 481.1800 362.9900
  A 81.09 24.24 90.0 0 0 505.4200 444.0800
  Z"
/>
<path fill="#ffffff" d="
  M 862.49 552.32
  L 1178.76 552.57
  Q 1179.24 552.57 1179.48 552.99
  L 1224.78 633.75
  A 0.82 0.82 0.0 0 1 1224.08 634.97
  C 1198.66 635.45 1173.33 635.04 1147.93 635.03
  Q 987.72 634.97 827.50 635.01
  C 826.52 635.01 825.75 634.53 825.05 633.94
  Q 777.19 593.94 729.24 553.90
  A 0.90 0.89 39.2 0 1 729.11 552.66
  Q 873.49 370.63 1018.00 188.50
  C 1018.72 187.59 1140.07 188.25 1151.88 188.25
  A 1.04 1.04 0.0 0 1 1152.69 189.94
  L 862.24 551.80
  Q 861.82 552.32 862.49 552.32
  Z"
/>
<path fill="#ffffff" d="
  M 2364.27 271.00
  L 2198.51 271.00
  Q 2197.76 271.00 2198.11 271.66
  L 2390.45 633.49
  Q 2391.36 635.22 2389.41 635.21
  L 2269.00 634.83
  A 0.56 0.46 72.9 0 1 2268.56 634.54
  L 2075.38 270.54
  A 1.52 1.51 -38.5 0 1 2075.58 268.83
  Q 2111.00 228.84 2146.39 188.90
  C 2147.56 187.58 2148.50 188.25 2149.74 188.25
  Q 2277.45 188.25 2405.17 188.25
  C 2407.95 188.25 2415.49 187.81 2417.44 190.01
  Q 2452.70 229.76 2487.95 269.55
  A 0.69 0.68 44.3 0 1 2487.97 270.43
  L 2340.82 450.45
  Q 2339.69 451.83 2338.85 450.25
  L 2291.53 361.73
  A 1.78 1.78 0.0 0 1 2291.73 359.76
  L 2364.52 271.53
  Q 2364.96 271.00 2364.27 271.00
  Z"
/>
<path fill="#ffffff" d="
  M 1297.93 509.07
  L 1412.57 188.45
  A 0.30 0.30 0.0 0 1 1412.85 188.25
  L 1498.58 188.25
  A 0.30 0.30 0.0 0 1 1498.86 188.44
  L 1677.75 634.18
  A 0.30 0.30 0.0 0 1 1677.47 634.59
  L 1577.36 635.05
  A 0.30 0.30 0.0 0 1 1577.08 634.85
  L 1457.62 314.82
  A 0.30 0.30 0.0 0 0 1457.05 314.83
  L 1360.96 634.79
  A 0.30 0.30 0.0 0 1 1360.68 635.00
  L 1262.95 635.00
  A 0.30 0.30 0.0 0 1 1262.69 634.84
  L 1090.46 310.52
  A 0.30 0.30 0.0 0 1 1090.49 310.20
  L 1166.46 215.11
  A 0.30 0.30 0.0 0 1 1166.97 215.17
  L 1297.38 509.09
  A 0.30 0.30 0.0 0 0 1297.93 509.07
  Z"
/>
<path fill="#ffffff" d="
  M 1915.86 272.58
  L 1714.37 634.34
  Q 1713.75 635.45 1712.54 634.46
  Q 1712.22 634.20 1711.73 633.01
  Q 1689.41 579.22 1667.00 525.43
  A 1.06 1.03 48.3 0 1 1667.04 524.54
  L 1843.83 189.10
  Q 1844.27 188.25 1845.23 188.25
  L 1989.05 188.25
  A 1.09 1.09 0.0 0 1 1990.01 188.82
  L 2138.18 471.64
  A 1.03 1.03 0.0 0 1 2137.26 473.15
  L 1849.04 472.68
  A 0.92 0.92 0.0 0 1 1848.24 471.32
  L 1892.12 391.15
  Q 1892.30 390.82 1892.84 390.82
  L 1986.20 390.60
  A 0.37 0.37 0.0 0 0 1986.51 390.04
  L 1916.17 272.58
  A 0.18 0.18 0.0 0 0 1915.86 272.58
  Z"
/>
<circle fill="#0087ff" cx="252.25" cy="647.83" r="44.44"/>
<circle fill="#0087ff" cx="412.50" cy="699.65" r="44.45"/>
</svg>
