<?xml version="1.0" encoding="UTF-8" standalone="no"?>
<!DOCTYPE svg PUBLIC "-//W3C//DTD SVG 1.1//EN" "http://www.w3.org/Graphics/SVG/1.1/DTD/svg11.dtd">
<svg xmlns="http://www.w3.org/2000/svg" version="1.1" viewBox="0 0 2591 809">
<path fill="#0087ff" d="
  M 332.63 291.17
  Q 333.12 290.87 333.69 290.51
  Q 524.87 171.37 716.19 52.44
  Q 718.45 51.03 720.29 50.09
  Q 722.06 49.18 721.73 51.15
  Q 720.60 57.80 719.39 64.18
  Q 681.76 261.70 644.22 459.24
  Q 641.85 471.72 639.52 483.60
  A 1.03 1.01 80.5 0 1 639.05 484.27
  L 355.81 652.77
  A 1.01 1.00 53.5 0 1 354.56 652.58
  L 138.16 416.58
  A 1.01 0.99 -46.9 0 1 138.13 415.27
  L 260.71 265.77
  Q 262.03 264.16 259.97 264.47
  Q 193.45 274.64 126.77 285.12
  Q 113.64 287.18 99.75 289.07
  Q 97.86 289.33 98.72 287.63
  Q 99.36 286.38 100.59 284.58
  Q 129.77 242.00 158.99 199.44
  A 0.97 0.96 -81.3 0 1 159.50 199.06
  Q 161.71 198.34 167.00 197.74
  Q 260.37 187.13 354.37 176.61
  A 1.01 0.99 -18.9 0 1 355.33 177.07
  L 380.87 217.95
  A 1.02 1.01 46.6 0 1 380.84 219.05
  L 331.55 290.03
  Q 329.37 293.17 332.63 291.17
  Z
  M 594.5584 404.6599
  A 81.14 24.32 90.1 0 0 619.0200 323.5624
  A 81.14 24.32 90.1 0 0 594.8416 242.3801
  A 81.14 24.32 90.1 0 0 570.3800 323.4776
  A 81.14 24.32 90.1 0 0 594.5584 404.6599
  Z
  M 505.4200 444.0800
  A 81.09 24.24 90.0 0 0 529.6600 362.9900
  A 81.09 24.24 90.0 0 0 505.4200 281.9000
  A 81.09 24.24 90.0 0 0 481.1800 362.9900
  A 81.09 24.24 90.0 0 0 505.4200 444.0800
  Z"
/>
<path fill="#000000" d="
  M 1296.89 507.97
  Q 1297.70 509.80 1298.38 507.92
  L 1412.41 188.91
  A 1.01 1.00 9.9 0 1 1413.36 188.25
  Q 1453.40 188.25 1493.94 188.25
  C 1497.05 188.26 1498.22 186.84 1499.78 190.74
  Q 1588.76 412.41 1677.37 633.22
  A 1.01 1.00 78.8 0 1 1676.45 634.60
  L 1577.85 635.05
  A 0.99 0.98 79.6 0 1 1576.91 634.40
  L 1458.14 316.20
  Q 1457.31 313.98 1456.63 316.25
  L 1361.11 634.28
  A 1.00 0.99 8.1 0 1 1360.15 634.99
  L 1263.38 635.01
  A 1.00 0.99 -13.9 0 1 1262.50 634.48
  L 1090.69 310.97
  A 1.01 1.01 0.0 0 1 1090.79 309.87
  Q 1127.34 264.05 1163.12 218.91
  Q 1164.73 216.88 1166.20 216.08
  A 1.01 1.00 63.9 0 1 1167.59 216.56
  L 1296.89 507.97
  Z"
/>
<path fill="#000000" d="
  M 2199.44 271.00
  A 1.00 1.00 0.0 0 0 2198.56 272.47
  Q 2293.43 450.97 2388.36 629.42
  Q 2389.61 631.77 2390.52 633.92
  A 1.01 1.00 -11.3 0 1 2389.59 635.31
  L 2269.29 634.81
  A 1.02 0.99 75.3 0 1 2268.41 634.28
  L 2075.21 270.22
  A 1.01 1.00 -38.2 0 1 2075.35 269.09
  L 2146.52 188.80
  A 1.02 1.01 17.8 0 1 2147.17 188.47
  C 2153.24 187.82 2161.01 188.50 2165.24 188.50
  Q 2290.70 188.50 2415.64 188.50
  A 1.02 1.01 -20.9 0 1 2416.39 188.83
  L 2487.78 269.34
  A 1.01 1.01 0.0 0 1 2487.81 270.64
  Q 2416.26 358.18 2344.77 445.76
  Q 2342.25 448.85 2340.49 450.58
  A 1.00 1.00 0.0 0 1 2338.91 450.34
  L 2291.28 361.26
  A 1.02 1.01 -39.4 0 1 2291.39 360.15
  L 2363.63 272.64
  Q 2364.98 271.00 2362.86 271.00
  L 2199.44 271.00
  Z"
/>
<path fill="#000000" d="
  M 863.91 552.33
  L 1178.69 552.57
  A 1.01 1.00 75.0 0 1 1179.56 553.08
  L 1224.33 632.96
  A 2.88 2.73 37.0 0 1 1224.65 634.86
  C 1224.58 635.22 859.95 635.01 826.68 635.05
  A 1.01 1.00 64.5 0 1 826.04 634.82
  L 729.33 553.95
  A 0.99 0.99 0.0 0 1 729.19 552.57
  L 1017.90 188.63
  A 1.01 1.00 18.9 0 1 1018.69 188.25
  L 1151.83 188.25
  Q 1153.64 188.25 1152.67 189.78
  Q 1151.83 191.13 1150.85 192.34
  Q 1006.98 371.50 863.13 550.70
  Q 861.83 552.32 863.91 552.33
  Z"
/>
<path fill="#000000" d="
  M 1985.87 390.37
  A 0.64 0.63 63.2 0 0 1986.17 389.45
  L 1916.89 273.80
  A 1.01 1.00 -45.9 0 0 1915.15 273.83
  L 1714.36 634.35
  A 1.00 1.00 0.0 0 1 1712.71 634.49
  Q 1712.16 633.82 1711.37 631.92
  Q 1689.13 578.58 1667.01 525.41
  A 1.01 0.99 -42.9 0 1 1667.05 524.56
  L 1843.92 188.94
  A 1.02 1.01 -75.5 0 1 1844.81 188.41
  L 1989.07 188.18
  A 1.00 1.00 0.0 0 1 1989.96 188.72
  L 2138.22 471.69
  A 1.00 1.00 0.0 0 1 2137.33 473.16
  L 1849.20 472.68
  A 1.00 1.00 0.0 0 1 1848.32 471.20
  L 1892.09 391.23
  A 1.01 0.99 13.9 0 1 1892.97 390.71
  Q 1938.99 390.92 1985.25 390.48
  Q 1985.60 390.48 1985.87 390.37
  Z"
/>
<circle fill="#0087ff" cx="252.25" cy="647.83" r="44.44"/>
<circle fill="#0087ff" cx="412.50" cy="699.65" r="44.45"/>
</svg>
