<?xml version="1.0" encoding="UTF-8" standalone="no"?>
<!DOCTYPE svg PUBLIC "-//W3C//DTD SVG 1.1//EN" "http://www.w3.org/Graphics/SVG/1.1/DTD/svg11.dtd">
<svg xmlns="http://www.w3.org/2000/svg" version="1.1" viewBox="0 0 2288 915">
<g stroke-width="2.00" fill="none" stroke-linecap="butt">
<path stroke="#80c3ff" vector-effect="non-scaling-stroke" d="
  M 215.75 347.23
  L 106.75 480.14
  A 0.92 0.91 -47.1 0 0 106.79 481.34
  L 297.76 689.56
  A 1.03 1.01 53.0 0 0 299.04 689.75
  L 549.00 541.10
  Q 549.45 540.84 549.54 540.33
  L 622.13 158.78
  A 1.54 0.29 34.8 0 0 621.12 157.76
  C 620.62 157.41 305.26 353.71 276.17 371.79
  A 0.10 0.09 0.9 0 1 276.04 371.66
  L 320.97 306.99
  A 1.06 1.05 -44.1 0 0 320.99 305.82
  L 298.67 270.14
  A 1.46 1.45 70.6 0 0 297.26 269.46
  Q 213.55 278.96 130.04 288.31
  C 128.52 288.48 125.80 288.69 125.04 289.80
  Q 99.02 327.66 72.97 365.50
  Q 72.11 366.75 71.56 368.27
  Q 71.28 369.03 72.08 368.91
  L 215.51 346.83
  Q 216.16 346.73 215.75 347.23"
/>
<path stroke="#808080" vector-effect="non-scaling-stroke" d="
  M 746.09 601.10
  A 0.14 0.13 -70.5 0 1 745.99 600.88
  Q 873.75 441.76 1001.37 282.64
  Q 1002.23 281.57 1002.65 280.76
  Q 1003.15 279.79 1002.06 279.79
  L 884.89 279.67
  A 2.00 2.00 0.0 0 0 883.32 280.43
  L 628.79 601.19
  A 1.09 1.09 0.0 0 0 628.94 602.70
  L 713.98 673.78
  A 1.98 1.96 -24.4 0 0 715.26 674.25
  L 1065.45 674.25
  A 0.88 0.88 0.0 0 0 1066.22 672.94
  L 1026.31 601.75
  Q 1026.06 601.31 1025.55 601.31
  L 746.09 601.10"
/>
<path stroke="#808080" vector-effect="non-scaling-stroke" d="
  M 1130.54 563.34
  Q 1073.75 435.16 1016.78 306.99
  Q 1016.16 305.60 1015.28 304.17
  Q 1014.83 303.45 1014.30 304.11
  L 947.91 387.14
  Q 947.62 387.50 947.84 387.91
  L 1099.52 673.49
  A 1.42 1.42 0.0 0 0 1100.78 674.25
  L 1185.42 674.25
  A 1.38 1.37 8.2 0 0 1186.74 673.27
  L 1271.46 391.27
  Q 1271.63 390.69 1271.84 391.26
  L 1377.28 673.64
  A 0.96 0.96 0.0 0 0 1378.18 674.27
  L 1464.41 673.82
  Q 1464.73 673.82 1464.99 673.62
  Q 1465.18 673.46 1465.45 673.49
  A 0.55 0.55 0.0 0 0 1466.04 672.74
  L 1308.45 280.21
  Q 1308.23 279.68 1307.66 279.68
  L 1232.81 279.77
  Q 1232.19 279.77 1231.98 280.35
  L 1130.78 563.33
  A 0.13 0.13 0.0 0 1 1130.54 563.34"
/>
<path stroke="#808080" vector-effect="non-scaling-stroke" d="
  M 1926.04 352.75
  L 2072.66 352.75
  A 0.25 0.25 0.0 0 1 2072.85 353.16
  Q 2041.14 391.52 2009.54 429.87
  C 2008.76 430.82 2007.80 431.79 2008.46 433.02
  Q 2029.37 472.41 2050.19 511.10
  Q 2050.86 512.35 2051.76 511.25
  L 2181.43 352.68
  Q 2182.09 351.88 2181.40 351.10
  L 2118.78 280.50
  A 2.28 2.28 0.0 0 0 2117.07 279.73
  Q 1999.54 279.76 1882.06 279.82
  Q 1880.61 279.83 1878.95 281.70
  Q 1848.16 316.38 1817.40 351.11
  Q 1817.01 351.55 1817.29 352.07
  L 1987.76 673.23
  A 1.54 1.53 -13.8 0 0 1989.12 674.05
  L 2095.54 674.33
  A 0.54 0.54 0.0 0 0 2096.02 673.53
  L 1925.75 353.23
  Q 1925.49 352.75 1926.04 352.75"
/>
<path stroke="#808080" vector-effect="non-scaling-stroke" d="
  M 1676.91 354.29
  L 1738.83 457.67
  Q 1739.14 458.19 1738.54 458.19
  Q 1697.92 458.77 1657.28 458.43
  C 1655.77 458.41 1655.56 459.02 1654.92 460.18
  Q 1635.76 494.99 1616.97 529.52
  A 0.77 0.77 0.0 0 0 1617.64 530.66
  L 1872.69 531.39
  A 0.58 0.55 -13.1 0 0 1873.22 530.58
  L 1742.04 280.23
  Q 1741.80 279.75 1741.25 279.75
  L 1613.91 279.75
  Q 1613.35 279.75 1613.09 280.24
  L 1456.92 576.49
  Q 1456.66 576.97 1456.87 577.48
  Q 1476.28 624.24 1495.81 670.94
  Q 1496.61 672.87 1497.35 674.04
  Q 1497.87 674.87 1498.34 674.01
  L 1676.49 354.29
  A 0.24 0.24 0.0 0 1 1676.91 354.29"
/>
<path stroke="#80c3ff" vector-effect="non-scaling-stroke" d="
  M 246.70 685.45
  A 39.20 39.20 0.0 0 0 207.50 646.25
  A 39.20 39.20 0.0 0 0 168.30 685.45
  A 39.20 39.20 0.0 0 0 207.50 724.65
  A 39.20 39.20 0.0 0 0 246.70 685.45"
/>
<path stroke="#80c3ff" vector-effect="non-scaling-stroke" d="
  M 388.21 731.20
  A 39.20 39.20 0.0 0 0 349.01 692.00
  A 39.20 39.20 0.0 0 0 309.81 731.20
  A 39.20 39.20 0.0 0 0 349.01 770.40
  A 39.20 39.20 0.0 0 0 388.21 731.20"
/>
<path stroke="#80c3ff" vector-effect="non-scaling-stroke" d="
  M 509.8800 470.4400
  A 71.17 21.02 90.0 0 0 530.9000 399.2700
  A 71.17 21.02 90.0 0 0 509.8800 328.1000
  A 71.17 21.02 90.0 0 0 488.8600 399.2700
  A 71.17 21.02 90.0 0 0 509.8800 470.4400"
/>
<path stroke="#80c3ff" vector-effect="non-scaling-stroke" d="
  M 431.1000 505.2300
  A 71.23 21.00 90.0 0 0 452.1000 434.0000
  A 71.23 21.00 90.0 0 0 431.1000 362.7700
  A 71.23 21.00 90.0 0 0 410.1000 434.0000
  A 71.23 21.00 90.0 0 0 431.1000 505.2300"
/>
</g>
<path fill="#ffffff" d="
  M 0.00 0.00
  L 2288.00 0.00
  L 2288.00 915.00
  L 0.00 915.00
  L 0.00 0.00
  Z
  M 215.75 347.23
  L 106.75 480.14
  A 0.92 0.91 -47.1 0 0 106.79 481.34
  L 297.76 689.56
  A 1.03 1.01 53.0 0 0 299.04 689.75
  L 549.00 541.10
  Q 549.45 540.84 549.54 540.33
  L 622.13 158.78
  A 1.54 0.29 34.8 0 0 621.12 157.76
  C 620.62 157.41 305.26 353.71 276.17 371.79
  A 0.10 0.09 0.9 0 1 276.04 371.66
  L 320.97 306.99
  A 1.06 1.05 -44.1 0 0 320.99 305.82
  L 298.67 270.14
  A 1.46 1.45 70.6 0 0 297.26 269.46
  Q 213.55 278.96 130.04 288.31
  C 128.52 288.48 125.80 288.69 125.04 289.80
  Q 99.02 327.66 72.97 365.50
  Q 72.11 366.75 71.56 368.27
  Q 71.28 369.03 72.08 368.91
  L 215.51 346.83
  Q 216.16 346.73 215.75 347.23
  Z
  M 746.09 601.10
  A 0.14 0.13 -70.5 0 1 745.99 600.88
  Q 873.75 441.76 1001.37 282.64
  Q 1002.23 281.57 1002.65 280.76
  Q 1003.15 279.79 1002.06 279.79
  L 884.89 279.67
  A 2.00 2.00 0.0 0 0 883.32 280.43
  L 628.79 601.19
  A 1.09 1.09 0.0 0 0 628.94 602.70
  L 713.98 673.78
  A 1.98 1.96 -24.4 0 0 715.26 674.25
  L 1065.45 674.25
  A 0.88 0.88 0.0 0 0 1066.22 672.94
  L 1026.31 601.75
  Q 1026.06 601.31 1025.55 601.31
  L 746.09 601.10
  Z
  M 1130.54 563.34
  Q 1073.75 435.16 1016.78 306.99
  Q 1016.16 305.60 1015.28 304.17
  Q 1014.83 303.45 1014.30 304.11
  L 947.91 387.14
  Q 947.62 387.50 947.84 387.91
  L 1099.52 673.49
  A 1.42 1.42 0.0 0 0 1100.78 674.25
  L 1185.42 674.25
  A 1.38 1.37 8.2 0 0 1186.74 673.27
  L 1271.46 391.27
  Q 1271.63 390.69 1271.84 391.26
  L 1377.28 673.64
  A 0.96 0.96 0.0 0 0 1378.18 674.27
  L 1464.41 673.82
  Q 1464.73 673.82 1464.99 673.62
  Q 1465.18 673.46 1465.45 673.49
  A 0.55 0.55 0.0 0 0 1466.04 672.74
  L 1308.45 280.21
  Q 1308.23 279.68 1307.66 279.68
  L 1232.81 279.77
  Q 1232.19 279.77 1231.98 280.35
  L 1130.78 563.33
  A 0.13 0.13 0.0 0 1 1130.54 563.34
  Z
  M 1926.04 352.75
  L 2072.66 352.75
  A 0.25 0.25 0.0 0 1 2072.85 353.16
  Q 2041.14 391.52 2009.54 429.87
  C 2008.76 430.82 2007.80 431.79 2008.46 433.02
  Q 2029.37 472.41 2050.19 511.10
  Q 2050.86 512.35 2051.76 511.25
  L 2181.43 352.68
  Q 2182.09 351.88 2181.40 351.10
  L 2118.78 280.50
  A 2.28 2.28 0.0 0 0 2117.07 279.73
  Q 1999.54 279.76 1882.06 279.82
  Q 1880.61 279.83 1878.95 281.70
  Q 1848.16 316.38 1817.40 351.11
  Q 1817.01 351.55 1817.29 352.07
  L 1987.76 673.23
  A 1.54 1.53 -13.8 0 0 1989.12 674.05
  L 2095.54 674.33
  A 0.54 0.54 0.0 0 0 2096.02 673.53
  L 1925.75 353.23
  Q 1925.49 352.75 1926.04 352.75
  Z
  M 1676.91 354.29
  L 1738.83 457.67
  Q 1739.14 458.19 1738.54 458.19
  Q 1697.92 458.77 1657.28 458.43
  C 1655.77 458.41 1655.56 459.02 1654.92 460.18
  Q 1635.76 494.99 1616.97 529.52
  A 0.77 0.77 0.0 0 0 1617.64 530.66
  L 1872.69 531.39
  A 0.58 0.55 -13.1 0 0 1873.22 530.58
  L 1742.04 280.23
  Q 1741.80 279.75 1741.25 279.75
  L 1613.91 279.75
  Q 1613.35 279.75 1613.09 280.24
  L 1456.92 576.49
  Q 1456.66 576.97 1456.87 577.48
  Q 1476.28 624.24 1495.81 670.94
  Q 1496.61 672.87 1497.35 674.04
  Q 1497.87 674.87 1498.34 674.01
  L 1676.49 354.29
  A 0.24 0.24 0.0 0 1 1676.91 354.29
  Z
  M 246.70 685.45
  A 39.20 39.20 0.0 0 0 207.50 646.25
  A 39.20 39.20 0.0 0 0 168.30 685.45
  A 39.20 39.20 0.0 0 0 207.50 724.65
  A 39.20 39.20 0.0 0 0 246.70 685.45
  Z
  M 388.21 731.20
  A 39.20 39.20 0.0 0 0 349.01 692.00
  A 39.20 39.20 0.0 0 0 309.81 731.20
  A 39.20 39.20 0.0 0 0 349.01 770.40
  A 39.20 39.20 0.0 0 0 388.21 731.20
  Z"
/>
<path fill="#0087ff" d="
  M 215.51 346.83
  L 72.08 368.91
  Q 71.28 369.03 71.56 368.27
  Q 72.11 366.75 72.97 365.50
  Q 99.02 327.66 125.04 289.80
  C 125.80 288.69 128.52 288.48 130.04 288.31
  Q 213.55 278.96 297.26 269.46
  A 1.46 1.45 70.6 0 1 298.67 270.14
  L 320.99 305.82
  A 1.06 1.05 -44.1 0 1 320.97 306.99
  L 276.04 371.66
  A 0.10 0.09 0.9 0 0 276.17 371.79
  C 305.26 353.71 620.62 157.41 621.12 157.76
  A 1.54 0.29 34.8 0 1 622.13 158.78
  L 549.54 540.33
  Q 549.45 540.84 549.00 541.10
  L 299.04 689.75
  A 1.03 1.01 53.0 0 1 297.76 689.56
  L 106.79 481.34
  A 0.92 0.91 -47.1 0 1 106.75 480.14
  L 215.75 347.23
  Q 216.16 346.73 215.51 346.83
  Z
  M 509.8800 470.4400
  A 71.17 21.02 90.0 0 0 530.9000 399.2700
  A 71.17 21.02 90.0 0 0 509.8800 328.1000
  A 71.17 21.02 90.0 0 0 488.8600 399.2700
  A 71.17 21.02 90.0 0 0 509.8800 470.4400
  Z
  M 431.1000 505.2300
  A 71.23 21.00 90.0 0 0 452.1000 434.0000
  A 71.23 21.00 90.0 0 0 431.1000 362.7700
  A 71.23 21.00 90.0 0 0 410.1000 434.0000
  A 71.23 21.00 90.0 0 0 431.1000 505.2300
  Z"
/>
<path fill="#000000" d="
  M 746.09 601.10
  L 1025.55 601.31
  Q 1026.06 601.31 1026.31 601.75
  L 1066.22 672.94
  A 0.88 0.88 0.0 0 1 1065.45 674.25
  L 715.26 674.25
  A 1.98 1.96 -24.4 0 1 713.98 673.78
  L 628.94 602.70
  A 1.09 1.09 0.0 0 1 628.79 601.19
  L 883.32 280.43
  A 2.00 2.00 0.0 0 1 884.89 279.67
  L 1002.06 279.79
  Q 1003.15 279.79 1002.65 280.76
  Q 1002.23 281.57 1001.37 282.64
  Q 873.75 441.76 745.99 600.88
  A 0.14 0.13 -70.5 0 0 746.09 601.10
  Z"
/>
<path fill="#000000" d="
  M 1130.54 563.34
  A 0.13 0.13 0.0 0 0 1130.78 563.33
  L 1231.98 280.35
  Q 1232.19 279.77 1232.81 279.77
  L 1307.66 279.68
  Q 1308.23 279.68 1308.45 280.21
  L 1466.04 672.74
  A 0.55 0.55 0.0 0 1 1465.45 673.49
  Q 1465.18 673.46 1464.99 673.62
  Q 1464.73 673.82 1464.41 673.82
  L 1378.18 674.27
  A 0.96 0.96 0.0 0 1 1377.28 673.64
  L 1271.84 391.26
  Q 1271.63 390.69 1271.46 391.27
  L 1186.74 673.27
  A 1.38 1.37 8.2 0 1 1185.42 674.25
  L 1100.78 674.25
  A 1.42 1.42 0.0 0 1 1099.52 673.49
  L 947.84 387.91
  Q 947.62 387.50 947.91 387.14
  L 1014.30 304.11
  Q 1014.83 303.45 1015.28 304.17
  Q 1016.16 305.60 1016.78 306.99
  Q 1073.75 435.16 1130.54 563.34
  Z"
/>
<path fill="#000000" d="
  M 1925.75 353.23
  L 2096.02 673.53
  A 0.54 0.54 0.0 0 1 2095.54 674.33
  L 1989.12 674.05
  A 1.54 1.53 -13.8 0 1 1987.76 673.23
  L 1817.29 352.07
  Q 1817.01 351.55 1817.40 351.11
  Q 1848.16 316.38 1878.95 281.70
  Q 1880.61 279.83 1882.06 279.82
  Q 1999.54 279.76 2117.07 279.73
  A 2.28 2.28 0.0 0 1 2118.78 280.50
  L 2181.40 351.10
  Q 2182.09 351.88 2181.43 352.68
  L 2051.76 511.25
  Q 2050.86 512.35 2050.19 511.10
  Q 2029.37 472.41 2008.46 433.02
  C 2007.80 431.79 2008.76 430.82 2009.54 429.87
  Q 2041.14 391.52 2072.85 353.16
  A 0.25 0.25 0.0 0 0 2072.66 352.75
  L 1926.04 352.75
  Q 1925.49 352.75 1925.75 353.23
  Z"
/>
<path fill="#000000" d="
  M 1676.91 354.29
  A 0.24 0.24 0.0 0 0 1676.49 354.29
  L 1498.34 674.01
  Q 1497.87 674.87 1497.35 674.04
  Q 1496.61 672.87 1495.81 670.94
  Q 1476.28 624.24 1456.87 577.48
  Q 1456.66 576.97 1456.92 576.49
  L 1613.09 280.24
  Q 1613.35 279.75 1613.91 279.75
  L 1741.25 279.75
  Q 1741.80 279.75 1742.04 280.23
  L 1873.22 530.58
  A 0.58 0.55 -13.1 0 1 1872.69 531.39
  L 1617.64 530.66
  A 0.77 0.77 0.0 0 1 1616.97 529.52
  Q 1635.76 494.99 1654.92 460.18
  C 1655.56 459.02 1655.77 458.41 1657.28 458.43
  Q 1697.92 458.77 1738.54 458.19
  Q 1739.14 458.19 1738.83 457.67
  L 1676.91 354.29
  Z"
/>
<ellipse fill="#ffffff" cx="0.00" cy="0.00" transform="translate(509.88,399.27) rotate(90.0)" rx="71.17" ry="21.02"/>
<ellipse fill="#ffffff" cx="0.00" cy="0.00" transform="translate(431.10,434.00) rotate(90.0)" rx="71.23" ry="21.00"/>
<circle fill="#0087ff" cx="207.50" cy="685.45" r="39.20"/>
<circle fill="#0087ff" cx="349.01" cy="731.20" r="39.20"/>
</svg>
